<svg width="65" height="65" viewBox="0 0 65 65" fill="none" xmlns="http://www.w3.org/2000/svg">
<path d="M8.125 32.5H32.5V36.5625H8.125V32.5ZM4.0625 22.3438H24.375V26.4063H4.0625V22.3438Z" fill="black"/>
<path d="M60.773 33.7309L54.6792 19.5122C54.5226 19.1469 54.2623 18.8355 53.9305 18.6167C53.5987 18.3979 53.21 18.2813 52.8125 18.2812H46.7188V14.2188C46.7188 13.68 46.5048 13.1634 46.1238 12.7824C45.7429 12.4015 45.2262 12.1875 44.6875 12.1875H12.1875V16.25H42.6563V41.7544C41.7312 42.2925 40.9217 43.0081 40.274 43.8601C39.6263 44.712 39.1533 45.6835 38.8822 46.7188H26.1178C25.6234 44.804 24.4477 43.1352 22.8109 42.0253C21.1742 40.9154 19.1888 40.4406 17.227 40.6898C15.2652 40.9389 13.4616 41.8951 12.1544 43.3789C10.8471 44.8627 10.1258 46.7724 10.1258 48.75C10.1258 50.7276 10.8471 52.6373 12.1544 54.1211C13.4616 55.6049 15.2652 56.5611 17.227 56.8102C19.1888 57.0594 21.1742 56.5846 22.8109 55.4747C24.4477 54.3648 25.6234 52.696 26.1178 50.7812H38.8822C39.3241 52.5245 40.3346 54.0707 41.7539 55.1752C43.1733 56.2797 44.9203 56.8793 46.7188 56.8793C48.5172 56.8793 50.2643 56.2797 51.6836 55.1752C53.1029 54.0707 54.1135 52.5245 54.5553 50.7812H58.9063C59.445 50.7812 59.9616 50.5672 60.3426 50.1863C60.7235 49.8054 60.9375 49.2887 60.9375 48.75V34.5312C60.9374 34.2561 60.8815 33.9838 60.773 33.7309ZM18.2813 52.8125C17.4778 52.8125 16.6923 52.5742 16.0243 52.1278C15.3562 51.6815 14.8355 51.047 14.528 50.3047C14.2205 49.5623 14.1401 48.7455 14.2968 47.9574C14.4536 47.1694 14.8405 46.4455 15.4086 45.8774C15.9768 45.3092 16.7007 44.9223 17.4887 44.7656C18.2768 44.6088 19.0936 44.6893 19.8359 44.9967C20.5782 45.3042 21.2127 45.8249 21.6591 46.493C22.1055 47.1611 22.3438 47.9465 22.3438 48.75C22.3438 49.8274 21.9157 50.8608 21.1539 51.6226C20.392 52.3845 19.3587 52.8125 18.2813 52.8125ZM46.7188 22.3438H51.4719L55.8269 32.5H46.7188V22.3438ZM46.7188 52.8125C45.9153 52.8125 45.1298 52.5742 44.4618 52.1278C43.7937 51.6815 43.273 51.047 42.9655 50.3047C42.658 49.5623 42.5776 48.7455 42.7343 47.9574C42.8911 47.1694 43.278 46.4455 43.8461 45.8774C44.4143 45.3092 45.1382 44.9223 45.9262 44.7656C46.7143 44.6088 47.5311 44.6893 48.2734 44.9967C49.0157 45.3042 49.6502 45.8249 50.0966 46.493C50.543 47.1611 50.7813 47.9465 50.7813 48.75C50.7813 49.8274 50.3532 50.8608 49.5914 51.6226C48.8295 52.3845 47.7962 52.8125 46.7188 52.8125ZM56.875 46.7188H54.5553C54.1079 44.9788 53.0957 43.4366 51.6775 42.3338C50.2593 41.231 48.5153 40.63 46.7188 40.625V36.5625H56.875V46.7188Z" fill="black"/>
</svg>
