<svg width="65" height="65" viewBox="0 0 65 65" fill="none" xmlns="http://www.w3.org/2000/svg">
<path d="M48.75 42.6562V46.7188H52.3006C50.048 49.8667 47.0758 52.4307 43.6316 54.1974C40.1874 55.964 36.3709 56.882 32.5 56.875C19.0592 56.875 8.125 45.9408 8.125 32.5H4.0625C4.0625 48.1812 16.8188 60.9375 32.5 60.9375C41.3461 60.9375 49.5097 56.873 54.8438 50.0805V52.8125H58.9062V42.6562H48.75Z" fill="black"/>
<path d="M45.7133 23.6377L33.5481 16.5283C33.2376 16.3467 32.8844 16.2508 32.5246 16.2504C32.1649 16.2501 31.8115 16.3452 31.5006 16.5262L19.2908 23.6356C18.9837 23.8143 18.7289 24.0704 18.5518 24.3784C18.3746 24.6863 18.2814 25.0354 18.2812 25.3906V39.6094C18.2814 39.9646 18.3746 40.3137 18.5518 40.6216C18.7289 40.9296 18.9837 41.1857 19.2908 41.3644L31.5006 48.4738C31.8027 48.6543 32.148 48.7498 32.5 48.75C32.8534 48.75 33.2313 48.6586 33.5481 48.4717L45.7133 41.3623C46.0193 41.1833 46.2731 40.9273 46.4495 40.6198C46.6259 40.3122 46.7187 39.9639 46.7188 39.6094V25.3906C46.7187 25.0361 46.6259 24.6878 46.4495 24.3802C46.2731 24.0727 46.0193 23.8167 45.7133 23.6377ZM32.5223 20.6314L40.6616 25.3906L32.5223 30.1478L24.3506 25.3906L32.5223 20.6314ZM22.3438 28.925L30.4688 33.6578V43.1742L22.3438 38.4414V28.925ZM34.5312 43.1945V33.6822L42.6562 28.9331V38.4455L34.5312 43.1945Z" fill="black"/>
<path d="M32.5 4.0625C28.1956 4.05628 23.9464 5.03075 20.0749 6.91195C16.2034 8.79315 12.8114 11.5316 10.1562 14.9195V12.1875H6.09375V22.3437H16.25V18.2812H12.6994C14.952 15.1333 17.9242 12.5693 21.3684 10.8026C24.8126 9.036 28.6291 8.11797 32.5 8.125C45.9408 8.125 56.875 19.0592 56.875 32.5H60.9375C60.9375 16.8187 48.1812 4.0625 32.5 4.0625Z" fill="black"/>
</svg>
