<svg width="65" height="65" viewBox="0 0 65 65" fill="none" xmlns="http://www.w3.org/2000/svg">
<path d="M50.7 39.975C51.6479 37.6729 52.1625 35.2083 52.1625 32.5C52.1625 30.55 51.8646 28.6812 51.35 26.9479C49.5896 27.3542 47.7479 27.5708 45.825 27.5708C41.887 27.5751 38.0057 26.6324 34.5083 24.8225C31.0109 23.0125 27.9999 20.3882 25.7292 17.1708C23.3024 23.0499 18.7193 27.7784 12.9188 30.3875C12.8104 31.0646 12.8104 31.7958 12.8104 32.5C12.8104 35.0857 13.3197 37.646 14.3092 40.0349C15.2987 42.4237 16.749 44.5943 18.5774 46.4226C22.2699 50.1151 27.278 52.1896 32.5 52.1896C35.3438 52.1896 38.0792 51.5667 40.5438 50.4562C42.0875 53.4083 42.7917 54.8708 42.7375 54.8708C38.2959 56.3604 34.8563 57.0917 32.5 57.0917C25.9459 57.0917 19.6896 54.5187 15.0854 49.8875C12.2824 47.0977 10.2003 43.6678 9.01877 39.8937H5.41669V27.5708H8.36877C9.26317 23.2172 11.3195 19.1869 14.3195 15.9076C17.3195 12.6283 21.1513 10.2224 25.4083 8.94497C29.6653 7.66759 34.1888 7.56646 38.4986 8.65233C42.8085 9.73819 46.744 11.9705 49.8875 15.1125C53.2994 18.513 55.6273 22.8483 56.5771 27.5708H59.5834V39.8937H59.4209L49.7792 48.75L35.425 47.125V42.6021H48.5063L50.7 39.975ZM25.1063 31.8771C25.9188 31.8771 26.7042 32.2021 27.2729 32.7979C27.8445 33.3742 28.1652 34.1529 28.1652 34.9646C28.1652 35.7762 27.8445 36.555 27.2729 37.1312C26.7042 37.7 25.9188 38.025 25.1063 38.025C23.4 38.025 22.0188 36.6708 22.0188 34.9646C22.0188 33.2583 23.4 31.8771 25.1063 31.8771ZM39.8667 31.8771C41.5729 31.8771 42.9271 33.2583 42.9271 34.9646C42.9271 36.6708 41.5729 38.025 39.8667 38.025C38.1604 38.025 36.7792 36.6708 36.7792 34.9646C36.7792 34.1457 37.1045 33.3604 37.6835 32.7814C38.2625 32.2024 39.0478 31.8771 39.8667 31.8771Z" fill="black"/>
</svg>
