<svg width="50" height="50" viewBox="0 0 50 50" fill="none" xmlns="http://www.w3.org/2000/svg">
<path d="M25 31.25C26.6576 31.25 28.2473 30.5915 29.4194 29.4194C30.5915 28.2473 31.25 26.6576 31.25 25C31.25 23.3424 30.5915 21.7527 29.4194 20.5806C28.2473 19.4085 26.6576 18.75 25 18.75C23.3424 18.75 21.7527 19.4085 20.5806 20.5806C19.4085 21.7527 18.75 23.3424 18.75 25C18.75 26.6576 19.4085 28.2473 20.5806 29.4194C21.7527 30.5915 23.3424 31.25 25 31.25Z" fill="white"/>
<path d="M0 12.5C0 11.6712 0.32924 10.8763 0.915291 10.2903C1.50134 9.70424 2.2962 9.375 3.125 9.375H46.875C47.7038 9.375 48.4987 9.70424 49.0847 10.2903C49.6708 10.8763 50 11.6712 50 12.5V37.5C50 38.3288 49.6708 39.1237 49.0847 39.7097C48.4987 40.2958 47.7038 40.625 46.875 40.625H3.125C2.2962 40.625 1.50134 40.2958 0.915291 39.7097C0.32924 39.1237 0 38.3288 0 37.5V12.5ZM9.375 12.5C9.375 14.1576 8.71652 15.7473 7.54442 16.9194C6.37232 18.0915 4.7826 18.75 3.125 18.75V31.25C4.7826 31.25 6.37232 31.9085 7.54442 33.0806C8.71652 34.2527 9.375 35.8424 9.375 37.5H40.625C40.625 35.8424 41.2835 34.2527 42.4556 33.0806C43.6277 31.9085 45.2174 31.25 46.875 31.25V18.75C45.2174 18.75 43.6277 18.0915 42.4556 16.9194C41.2835 15.7473 40.625 14.1576 40.625 12.5H9.375Z" fill="white"/>
</svg>
