<svg width="60" height="60" viewBox="0 0 60 60" fill="none" xmlns="http://www.w3.org/2000/svg">
<path d="M7.5 27.5C7.5 18.0725 7.5 13.3575 10.43 10.43C13.36 7.5025 18.0725 7.5 27.5 7.5H32.5C41.9275 7.5 46.6425 7.5 49.57 10.43C52.4975 13.36 52.5 18.0725 52.5 27.5V32.5C52.5 41.9275 52.5 46.6425 49.57 49.57C46.64 52.4975 41.9275 52.5 32.5 52.5H27.5C18.0725 52.5 13.3575 52.5 10.43 49.57C7.5025 46.64 7.5 41.9275 7.5 32.5V27.5Z" stroke="white"/>
<path d="M41.25 22.5C43.3211 22.5 45 20.8211 45 18.75C45 16.6789 43.3211 15 41.25 15C39.1789 15 37.5 16.6789 37.5 18.75C37.5 20.8211 39.1789 22.5 41.25 22.5Z" fill="white"/>
<path d="M30 38.75C34.8325 38.75 38.75 34.8325 38.75 30C38.75 25.1675 34.8325 21.25 30 21.25C25.1675 21.25 21.25 25.1675 21.25 30C21.25 34.8325 25.1675 38.75 30 38.75Z" stroke="white"/>
</svg>
