<svg width="50" height="50" viewBox="0 0 50 50" fill="none" xmlns="http://www.w3.org/2000/svg">
<path d="M14.8396 23.325C14.8646 25.625 16.9271 26.3875 16.9438 26.3979C16.9271 26.4479 16.6125 27.4917 15.8583 28.5625C15.2042 29.4875 14.525 30.4125 13.4562 30.4292C12.4021 30.4459 12.0625 29.825 10.8667 29.825C9.66042 29.825 9.2875 30.4125 8.29375 30.4459C7.25833 30.4792 6.47708 29.4459 5.81458 28.5188C4.46458 26.6354 3.43958 23.1875 4.82291 20.8625C5.51041 19.7084 6.73958 18.9771 8.07292 18.9521C9.08333 18.9354 10.0437 19.6146 10.6625 19.6146C11.2812 19.6146 12.4458 18.8 13.6667 18.9188C14.1771 18.9354 15.6208 19.1229 16.5375 20.4292C16.4604 20.4709 14.8229 21.3979 14.8396 23.325ZM12.8604 17.6709C13.4125 17.025 13.7771 16.1334 13.6771 15.2417C12.8854 15.2771 11.9271 15.7521 11.3667 16.3979C10.8583 16.9667 10.4167 17.875 10.5333 18.7479C11.4187 18.8167 12.3187 18.3146 12.8604 17.6709ZM20.8021 16.5667C21.2062 16.5 21.6625 16.4417 22.1521 16.3834C22.6424 16.3264 23.1806 16.2986 23.7667 16.3C24.6069 16.3014 25.3313 16.3986 25.9396 16.5917C26.5479 16.7938 27.0458 17.0709 27.4417 17.45C27.7778 17.7792 28.0417 18.1681 28.2333 18.6167C28.4222 19.0681 28.5167 19.5875 28.5167 20.175C28.5167 20.8875 28.3875 21.5111 28.1292 22.0459C27.8852 22.5691 27.5237 23.029 27.0729 23.3896C26.5989 23.763 26.0559 24.0391 25.475 24.2021C24.8181 24.3864 24.1385 24.4776 23.4562 24.4729C22.9 24.4798 22.3444 24.431 21.7979 24.3271V30.2354H20.8125V16.5688L20.8021 16.5667ZM21.7896 23.4646C22.0312 23.5327 22.2979 23.5806 22.5896 23.6084C22.884 23.6334 23.1986 23.6473 23.5333 23.65C24.7931 23.6514 25.7694 23.3632 26.4625 22.7854C27.1569 22.2132 27.5035 21.3716 27.5021 20.2604C27.5021 19.7243 27.4104 19.2598 27.2271 18.8667C27.056 18.4827 26.7909 18.1481 26.4563 17.8938C26.0971 17.63 25.6914 17.4363 25.2604 17.3229C24.7587 17.191 24.2417 17.1265 23.7229 17.1313C23.2771 17.1313 22.8903 17.1479 22.5625 17.1813C22.3043 17.2078 22.0472 17.2439 21.7917 17.2896L21.7896 23.4646ZM36.3667 27.8938C36.3681 28.2924 36.3736 28.6896 36.3833 29.0854C36.4 29.4827 36.4431 29.866 36.5125 30.2354H35.5854L35.4396 28.8438H35.3958C35.2587 29.0519 35.0971 29.2428 34.9146 29.4125C34.7104 29.6139 34.484 29.7875 34.2354 29.9334C33.9607 30.101 33.6632 30.2281 33.3521 30.3104C33.0257 30.4049 32.6646 30.4528 32.2688 30.4542C31.7799 30.4542 31.3507 30.3757 30.9813 30.2188C30.6392 30.0789 30.3293 29.8704 30.0708 29.6063C29.8296 29.3592 29.6472 29.0608 29.5375 28.7334C29.4212 28.4191 29.3599 28.0872 29.3562 27.7521C29.3562 26.5882 29.8576 25.6931 30.8604 25.0667C31.8618 24.4375 33.3708 24.1354 35.3875 24.1604V23.8917C35.3875 23.6348 35.3618 23.3389 35.3104 23.0042C35.2626 22.667 35.1516 22.3419 34.9833 22.0459C34.8011 21.733 34.5404 21.4731 34.2271 21.2917C33.8924 21.0875 33.4375 20.9841 32.8625 20.9813C31.9887 20.9821 31.1341 21.2384 30.4042 21.7188L30.0875 20.998C30.5347 20.6979 30.9958 20.4827 31.4708 20.3521C31.9431 20.2257 32.441 20.1611 32.9646 20.1584C33.6674 20.1584 34.2368 20.2764 34.6729 20.5125C35.1104 20.7459 35.4646 21.0479 35.7146 21.4167C35.9618 21.7861 36.1333 22.2 36.2292 22.6584C36.3222 23.1195 36.3681 23.5757 36.3667 24.0271V27.8938ZM35.3792 24.9667C34.823 24.9543 34.2665 24.9738 33.7125 25.025C33.1292 25.0834 32.5938 25.2035 32.1063 25.3854C31.6406 25.5556 31.2222 25.8341 30.8854 26.1979C30.5674 26.5549 30.4076 27.0285 30.4063 27.6188C30.4063 28.316 30.609 28.8271 31.0146 29.1521C31.4174 29.4813 31.8729 29.6466 32.3813 29.6479C32.7868 29.6466 33.15 29.591 33.4708 29.4813C33.7903 29.3702 34.0708 29.2216 34.3125 29.0354C34.5514 28.8493 34.7521 28.6396 34.9146 28.4063C35.0704 28.1843 35.1945 27.9417 35.2833 27.6854C35.3402 27.4913 35.3751 27.2915 35.3875 27.0896L35.3792 24.9667ZM38.2896 20.3854L40.85 26.7875C41.1255 27.4901 41.3716 28.204 41.5875 28.9271H41.6312C41.8633 28.196 42.1155 27.4714 42.3875 26.7542L44.7833 20.3938H45.8312L42.9104 27.6188C42.616 28.3827 42.3382 29.0757 42.0771 29.6979C41.8392 30.2719 41.5757 30.835 41.2875 31.3854C41.0458 31.8434 40.7758 32.286 40.4792 32.7104C40.2197 33.0826 39.9146 33.4206 39.5708 33.7167C39.175 34.0611 38.8139 34.3104 38.4875 34.4646C38.2732 34.5745 38.0527 34.6719 37.8271 34.7563L37.4917 33.9604C37.7417 33.8521 38.0222 33.7098 38.3333 33.5334C38.6431 33.3542 38.9437 33.1216 39.2354 32.8354C39.4868 32.5924 39.7646 32.2681 40.0687 31.8625C40.3674 31.4611 40.6361 30.9716 40.875 30.3938C40.937 30.2579 40.9804 30.1142 41.0042 29.9667C40.9871 29.8177 40.9433 29.6731 40.875 29.5396L37.2417 20.4104H38.2896V20.3854Z" fill="white"/>
</svg>
