<svg width="60" height="60" viewBox="0 0 60 60" fill="none" xmlns="http://www.w3.org/2000/svg">
<path d="M38.2805 28.8282L27.0305 21.3282C26.8186 21.1868 26.5722 21.1056 26.3178 21.0933C26.0633 21.0811 25.8103 21.1381 25.5858 21.2585C25.3612 21.3788 25.1736 21.5579 25.0429 21.7766C24.9122 21.9952 24.8434 22.2453 24.8438 22.5V37.5C24.8434 37.7548 24.9122 38.0049 25.0429 38.2235C25.1736 38.4422 25.3612 38.6213 25.5858 38.7416C25.8103 38.8619 26.0633 38.919 26.3178 38.9067C26.5722 38.8945 26.8186 38.8133 27.0305 38.6719L38.2805 31.1719C38.4739 31.0436 38.6325 30.8695 38.7422 30.665C38.852 30.4606 38.9094 30.2321 38.9094 30C38.9094 29.768 38.852 29.5395 38.7422 29.3351C38.6325 29.1306 38.4739 28.9564 38.2805 28.8282ZM27.6563 34.8727V25.1274L34.9641 30L27.6563 34.8727ZM54.4688 16.4063C54.2653 15.6158 53.877 14.8848 53.3359 14.2736C52.7948 13.6624 52.1163 13.1885 51.3563 12.8907C43.3594 9.79458 30.532 9.8438 30 9.8438C29.468 9.8438 16.6406 9.79458 8.63438 12.8907C7.87607 13.1897 7.19946 13.6642 6.66004 14.2753C6.12063 14.8864 5.73379 15.6167 5.53125 16.4063C4.93359 18.7243 4.21875 22.9688 4.21875 30C4.21875 37.0313 4.93359 41.2758 5.53125 43.5938C5.73473 44.3843 6.12299 45.1153 6.6641 45.7265C7.20521 46.3376 7.8837 46.8116 8.64375 47.1094C16.6406 50.2055 29.4656 50.1563 30 50.1563H30.1664C31.7859 50.1563 43.7602 50.0532 51.3656 47.1094C52.1257 46.8116 52.8042 46.3376 53.3453 45.7265C53.8864 45.1153 54.2747 44.3843 54.4781 43.5938C55.0758 41.2805 55.7906 37.0477 55.7906 30C55.7906 22.9524 55.0781 18.7243 54.4688 16.4063ZM51.7453 42.8907C51.6551 43.2509 51.4805 43.5845 51.236 43.8641C50.9915 44.1436 50.6841 44.3611 50.3391 44.4985C42.8391 47.3883 30.1359 47.3438 30 47.3438C29.8641 47.3438 17.1773 47.3907 9.66797 44.4915C9.32295 44.354 9.01553 44.1366 8.77103 43.8571C8.52654 43.5775 8.35197 43.2439 8.26172 42.8836C7.69688 40.7297 7.03125 36.7454 7.03125 30C7.03125 23.2547 7.69688 19.2704 8.25469 17.1094C8.34494 16.7492 8.51951 16.4155 8.764 16.136C9.0085 15.8565 9.31592 15.639 9.66094 15.5016C16.8891 12.7172 28.9523 12.6563 29.9438 12.6563H30C30.1266 12.6563 42.8227 12.6094 50.332 15.5086C50.6771 15.6461 50.9845 15.8635 51.229 16.143C51.4735 16.4226 51.648 16.7562 51.7383 17.1165C52.2961 19.2704 52.9617 23.2547 52.9617 30.0071C52.9617 36.7594 52.3031 40.7297 51.7453 42.8907Z" fill="white"/>
</svg>
