<svg width="60" height="60" viewBox="0 0 60 60" fill="none" xmlns="http://www.w3.org/2000/svg">
<path d="M52.5 17.8125C49.2688 17.8088 46.171 16.5235 43.8862 14.2388C41.6015 11.954 40.3162 8.85618 40.3125 5.625C40.3125 5.37636 40.2137 5.1379 40.0379 4.96209C39.8621 4.78627 39.6236 4.6875 39.375 4.6875H30C29.7514 4.6875 29.5129 4.78627 29.3371 4.96209C29.1613 5.1379 29.0625 5.37636 29.0625 5.625V36.5625C29.0624 37.5692 28.7921 38.5574 28.2799 39.424C27.7676 40.2906 27.0322 41.0038 26.1504 41.4893C25.2685 41.9748 24.2725 42.2148 23.2663 42.1842C22.2601 42.1535 21.2806 41.8534 20.4299 41.3152C19.5792 40.7769 18.8885 40.0202 18.43 39.1241C17.9714 38.2279 17.7618 37.2251 17.8229 36.2203C17.884 35.2155 18.2136 34.2455 18.7774 33.4115C19.3412 32.5775 20.1185 31.9101 21.0281 31.4789C21.1884 31.4026 21.3237 31.2823 21.4183 31.1321C21.5129 30.9819 21.5629 30.808 21.5625 30.6305V20.625C21.5626 20.488 21.5326 20.3526 21.4747 20.2284C21.4167 20.1042 21.3323 19.9942 21.2273 19.9061C21.1223 19.8181 20.9992 19.7542 20.8668 19.7188C20.7344 19.6835 20.5959 19.6776 20.4609 19.7016C12.5367 21.1125 6.5625 28.3594 6.5625 36.5625C6.5625 41.038 8.3404 45.3302 11.5051 48.4949C14.6697 51.6596 18.962 53.4375 23.4375 53.4375C27.913 53.4375 32.2052 51.6596 35.3699 48.4949C38.5346 45.3302 40.3125 41.038 40.3125 36.5625V25.65C43.9816 27.8919 48.2002 29.0731 52.5 29.0625C52.7486 29.0625 52.9871 28.9637 53.1629 28.7879C53.3387 28.6121 53.4375 28.3736 53.4375 28.125V18.75C53.4375 18.5014 53.3387 18.2629 53.1629 18.0871C52.9871 17.9113 52.7486 17.8125 52.5 17.8125ZM51.5625 27.1687C47.3721 26.9962 43.3247 25.596 39.9234 23.1422C39.7832 23.041 39.6177 22.9806 39.4452 22.9677C39.2728 22.9547 39.1001 22.9897 38.9463 23.0688C38.7925 23.1479 38.6636 23.268 38.5738 23.4158C38.484 23.5636 38.4368 23.7333 38.4375 23.9062V36.5625C38.4375 40.5407 36.8571 44.3561 34.0441 47.1691C31.2311 49.9821 27.4157 51.5625 23.4375 51.5625C19.4593 51.5625 15.6439 49.9821 12.8309 47.1691C10.0179 44.3561 8.4375 40.5407 8.4375 36.5625C8.4375 29.6437 13.2 23.4867 19.6875 21.7969V30.0727C18.5472 30.731 17.6003 31.678 16.942 32.8184C16.2837 33.9588 15.9373 35.2524 15.9375 36.5692C15.9377 37.8859 16.2846 39.1794 16.9433 40.3196C17.602 41.4597 18.5492 42.4064 19.6898 43.0644C20.8304 43.7223 22.1241 44.0684 23.4408 44.0678C24.7576 44.0673 26.051 43.72 27.191 43.061C28.331 42.402 29.2774 41.4545 29.935 40.3138C30.5927 39.173 30.9384 37.8792 30.9375 36.5625V6.5625H38.468C38.7002 9.95887 40.1543 13.1563 42.5615 15.5635C44.9687 17.9707 48.1661 19.4248 51.5625 19.657V27.1687Z" fill="white"/>
</svg>
