<svg width="50" height="50" viewBox="0 0 50 50" fill="none" xmlns="http://www.w3.org/2000/svg">
<path d="M33.2104 37.4229C33.6896 33.5083 31.1687 31.0125 24.5125 28.8875C21.2875 27.7875 19.7687 26.3458 19.8042 24.3646C19.9396 22.1646 21.9875 20.5625 24.7042 20.5104C26.8436 20.5335 28.9303 21.1777 30.7104 22.3646C30.9521 22.5146 31.1208 22.4896 31.2583 22.2812C31.4458 21.9812 31.9146 21.2542 32.0708 20.9896C32.1771 20.8229 32.1979 20.6021 31.9292 20.4062C31.5437 20.1208 30.4625 19.5417 29.8812 19.2979C28.2259 18.5973 26.4475 18.2333 24.65 18.2271C20.6708 18.2437 17.5396 20.7583 17.275 24.1146C17.1056 26.5396 18.3069 28.5028 20.8792 30.0042C21.4271 30.3208 24.3792 31.4958 25.5542 31.8625C29.25 33.0125 31.1687 35.075 30.7167 37.4812C30.3062 39.6625 28.0104 41.0729 24.8458 41.1146C22.3396 41.0187 20.0812 39.9958 18.3312 38.6354L18.0375 38.4062C17.8208 38.2396 17.5833 38.25 17.4396 38.4688C17.3354 38.6292 16.6562 39.6083 16.4854 39.8646C16.325 40.0896 16.4125 40.2146 16.5792 40.3521C17.3083 40.9625 18.2812 41.6292 18.9417 41.9667C20.771 42.8988 22.7833 43.416 24.8354 43.4813C26.3128 43.5515 27.7878 43.2998 29.1583 42.7437C31.4396 41.775 32.9146 39.8396 33.2104 37.4229ZM25 2.91875C20.6917 2.91875 17.1792 6.98125 17.0146 12.0646H32.9833C32.8146 6.97917 29.3042 2.91667 25 2.91667M41.3562 49.9958L41.1896 49.9979L8.30625 49.9937C6.06875 49.9104 4.425 48.0979 4.2 45.8458L4.17916 45.4396L2.70625 13.0937C2.69659 12.9638 2.71354 12.8333 2.75605 12.7101C2.79856 12.5869 2.86574 12.4737 2.95349 12.3774C3.04123 12.2811 3.1477 12.2036 3.26638 12.1499C3.38507 12.0961 3.51347 12.0671 3.64375 12.0646H14.0083C14.2604 5.35 19.0833 0 25 0C30.9167 0 35.7354 5.35208 35.9896 12.0625H46.3396C46.4692 12.0629 46.5974 12.0896 46.7164 12.141C46.8355 12.1924 46.9428 12.2674 47.032 12.3614C47.1212 12.4555 47.1904 12.5667 47.2354 12.6883C47.2804 12.8098 47.3002 12.9393 47.2937 13.0687L45.6833 45.5437L45.6687 45.8167C45.4729 48.0958 43.6292 49.9354 41.3562 49.9958Z" fill="white"/>
</svg>
