<svg width="50" height="50" viewBox="0 0 50 50" fill="none" xmlns="http://www.w3.org/2000/svg">
<path d="M4.16666 25C4.16666 17.1438 4.16666 13.2146 6.60832 10.775C9.04999 8.33546 12.9771 8.33337 20.8333 8.33337H29.1667C37.0229 8.33337 40.9521 8.33337 43.3917 10.775C45.8312 13.2167 45.8333 17.1438 45.8333 25C45.8333 32.8563 45.8333 36.7855 43.3917 39.225C40.95 41.6646 37.0229 41.6667 29.1667 41.6667H20.8333C12.9771 41.6667 9.04791 41.6667 6.60832 39.225C4.16874 36.7834 4.16666 32.8563 4.16666 25Z" stroke="white" stroke-width="1.5"/>
<path d="M20.8333 33.3334H12.5M29.1667 33.3334H26.0417M4.16666 20.8334H45.8333" stroke="white" stroke-width="1.5" stroke-linecap="round"/>
</svg>
