<svg width="50" height="50" viewBox="0 0 50 50" fill="none" xmlns="http://www.w3.org/2000/svg">
<path d="M25 48.3333C21.9358 48.3333 18.9017 47.7298 16.0707 46.5571C13.2398 45.3845 10.6676 43.6658 8.50086 41.4991C6.33416 39.3324 4.61544 36.7602 3.44283 33.9292C2.27022 31.0983 1.66669 28.0641 1.66669 25C1.66669 21.9358 2.27022 18.9016 3.44283 16.0707C4.61544 13.2397 6.33416 10.6675 8.50086 8.5008C10.6676 6.3341 13.2398 4.61538 16.0707 3.44277C18.9017 2.27016 21.9358 1.66663 25 1.66663C31.1884 1.66663 37.1233 4.12495 41.4992 8.5008C45.875 12.8767 48.3334 18.8116 48.3334 25C48.3334 31.1883 45.875 37.1233 41.4992 41.4991C37.1233 45.875 31.1884 48.3333 25 48.3333ZM25 48.3333V21.6666C25 19.8985 25.7024 18.2028 26.9526 16.9526C28.2029 15.7023 29.8986 15 31.6667 15H33.3334M16.6667 28.3333H33.3334" stroke="white"/>
</svg>
